<svg id="Layer_1" height="512" viewBox="0 0 512 512" width="512" xmlns="http://www.w3.org/2000/svg" data-name="Layer 1"><path d="m439.76 274.91a14.615 14.615 0 1 1 -14.61 14.61 14.611 14.611 0 0 1 14.61-14.61z" fill="#f3a4ef"/><path d="m425.41 87.36-3.11 9.32a33.446 33.446 0 0 0 0 21.16l3.11 9.32-9.32-3.1a33.446 33.446 0 0 0 -21.16 0l-9.32 3.1 3.1-9.32a33.446 33.446 0 0 0 0-21.16l-3.1-9.32 9.32 3.11a33.446 33.446 0 0 0 21.16 0z" fill="#49bdff"/><path d="m263.71 27.01a14.615 14.615 0 1 1 -14.61 14.61 14.617 14.617 0 0 1 14.61-14.61z" fill="#fff655"/><path d="m233.57 111.53-3.11 9.32a33.446 33.446 0 0 0 0 21.16l3.11 9.32-9.33-3.11a33.585 33.585 0 0 0 -21.16 0l-9.32 3.11 3.11-9.32a33.446 33.446 0 0 0 0-21.16l-3.11-9.32 9.32 3.1a33.446 33.446 0 0 0 21.16 0z" fill="#f3a4ef"/><path d="m255.33 257.44c60.07 60.07 102.9 114.62 95.68 121.85a2.8 2.8 0 0 1 -1.73.75c-11.86 1.44-63.54-39.85-120.12-96.43s-97.87-108.26-96.43-120.12a2.8 2.8 0 0 1 .75-1.73c7.23-7.22 61.78 35.61 121.85 95.68z" fill="#b1c9dd"/><path d="m392.03 269.99-3.11 9.33a33.415 33.415 0 0 0 0 21.15l3.11 9.33-9.32-3.11a33.446 33.446 0 0 0 -21.16 0l-9.32 3.11 3.1-9.33a33.415 33.415 0 0 0 0-21.15l-3.1-9.33 9.32 3.11a33.446 33.446 0 0 0 21.16 0z" fill="#fff655"/><path d="m238.38 416.19.02.05-210.62 68.75 22.49-68.89.26.09z" fill="#49bdff"/><path d="m291.31 398.97-52.91 17.27-.02-.05h-187.85l-.26-.09 16.78-51.42.07.02h175a504.409 504.409 0 0 0 49.19 34.27z" fill="#fb6771"/><path d="m242.12 364.7h-175l-.07-.02 16.83-51.55.26.09h100.74l.07-.07c2.37 2.47 4.8 4.94 7.26 7.41a554.137 554.137 0 0 0 49.91 44.14z" fill="#49bdff"/><path d="m184.95 313.15-.07.07h-100.74l-.26-.09 16.77-51.4h40.5a569.521 569.521 0 0 0 43.8 51.42z" fill="#fb6771"/><path d="m141.15 261.73h-40.5l13.07-40.03.03.01c6.71 11.03 15.93 24.83 27.4 40.02z" fill="#3090fc"/><path d="m132.73 163.49c-1.44 11.86 39.85 63.54 96.43 120.12s108.26 97.87 120.12 96.43v.01l-57.97 18.92a504.409 504.409 0 0 1 -49.19-34.27 554.137 554.137 0 0 1 -49.91-44.14c-2.46-2.47-4.89-4.94-7.26-7.41a569.521 569.521 0 0 1 -43.8-51.42c-11.47-15.19-20.69-28.99-27.4-40.02l-.03-.01 19-58.21z" fill="#dce7f4"/><path d="m132.73 163.49h-.01l-19 58.21.03.01c5.06 8.318 11.549 18.212 19.352 29.088l18.612-53.59c-12.574-16.59-19.592-28.708-18.984-33.718z" fill="#bed2e5"/><path d="m97.043 364.7h-29.923l-.07-.02-16.78 51.42.26.09h30l-.26-.09z" fill="#de3c44"/><g fill="#3090fc"><path d="m50.53 416.19-.26-.09-22.49 68.89 33.578-10.96 18.883-57.84z"/><path d="m113.851 313.22h-29.711l-.26-.09-16.83 51.55.07.02h30l-.07-.02z"/><path d="m184.95 313.15-.07.07h.138z"/></g><path d="m130.65 261.73h-30l-16.77 51.4.26.09h30l-.26-.09z" fill="#de3c44"/><path d="m113.72 221.7-13.07 40.03h30l3.221-9.866c-8.144-11.3-14.9-21.566-20.121-30.154z" fill="#3090fc"/><path d="m315.769 247.606a6 6 0 0 1 -4.243-10.243l23.687-23.687a53.283 53.283 0 0 1 75.268 0l8.06 8.059a6 6 0 0 1 -8.486 8.486l-8.055-8.059a41.269 41.269 0 0 0 -58.3 0l-23.688 23.687a5.982 5.982 0 0 1 -4.243 1.757z" fill="#6addc7"/><path d="m271.164 203a6 6 0 0 1 -4.243-10.243l23.687-23.687a41.268 41.268 0 0 0 0-58.3l-8.06-8.059a6 6 0 0 1 8.486-8.486l8.06 8.06a53.284 53.284 0 0 1 0 75.268l-23.687 23.687a5.984 5.984 0 0 1 -4.243 1.76z" fill="#6addc7"/><path d="m285.914 233.651a6 6 0 0 1 -4.243-10.243l77.035-77.034a6 6 0 0 1 8.485 8.485l-77.034 77.035a5.984 5.984 0 0 1 -4.243 1.757z" fill="#6addc7"/><path d="m479.071 184.436 9.4-9.4a6 6 0 1 0 -8.485-8.486l-9.4 9.4-9.4-9.4a6 6 0 0 0 -8.485 8.486l9.4 9.4-9.4 9.4a6 6 0 1 0 8.485 8.485l9.4-9.4 9.4 9.4a6 6 0 1 0 8.485-8.485z" fill="#7ce5e9"/><path d="m198.791 294.467a5.983 5.983 0 0 1 -4.338-1.854c-16.55-17.311-31.86-34.374-44.275-49.344a6 6 0 1 1 9.238-7.66c12.237 14.757 27.352 31.6 43.711 48.711a6 6 0 0 1 -4.336 10.147z" fill="#acc1d1"/><path d="m218.668 314.791a5.984 5.984 0 0 1 -4.243-1.757q-3.146-3.147-6.229-6.272a6 6 0 1 1 8.542-8.428q3.054 3.1 6.173 6.214a6 6 0 0 1 -4.243 10.243z" fill="#acc1d1"/></svg>