<svg id="Capa_1" enable-background="new 0 0 512 512" height="512" viewBox="0 0 512 512" width="512" xmlns="http://www.w3.org/2000/svg"><g><path d="m339.133 421.511h162.533c5.708 0 10.334-4.627 10.334-10.334v-148.877h-183.201v148.876c0 5.708 4.627 10.335 10.334 10.335z" fill="#b3e59f"/><path d="m484.738 262.3v159.211h16.928c5.708 0 10.334-4.627 10.334-10.334v-148.877z" fill="#95d6a4"/><path d="m363.694 376.281v-68.751c0-5.708 4.627-10.334 10.334-10.334h92.742c5.708 0 10.334 4.627 10.334 10.334v68.751c0 5.708-4.627 10.334-10.334 10.334h-92.742c-5.707 0-10.334-4.627-10.334-10.334z" fill="#f9f6f9"/><path d="m328.799 317.284 54.985-54.984h-54.985z" fill="#95d6a4"/><path d="m328.799 210.96v51.34h183.201v-51.34c0-3.95-2.252-7.555-5.801-9.287l-81.266-39.666c-2.861-1.396-6.205-1.396-9.066 0l-81.267 39.666c-3.549 1.732-5.801 5.337-5.801 9.287z" fill="#e28086"/><path d="m484.738 191.198v71.102h27.262v-51.34c0-3.95-2.252-7.555-5.801-9.287z" fill="#dd636e"/><path d="m328.799 210.96v51.34h54.985l44.095-44.095c6.81-6.81 8.347-17.282 3.781-25.762l-16.265-30.206-80.795 39.436c-3.549 1.732-5.801 5.337-5.801 9.287z" fill="#dd636e"/><g><path d="m75.83 431.155 1.195-13.143c.452-4.968 4.388-8.905 9.356-9.356l13.143-1.195c2.408-.219 4.662-1.275 6.372-2.984l9.359-9.359c1.709-1.71 2.766-3.964 2.984-6.372l1.195-13.143c.452-4.968 4.388-8.905 9.356-9.356l13.143-1.195c2.408-.219 4.662-1.275 6.372-2.984l103.765-103.767-49.35-49.35-199.693 199.694c-2.835 2.835-3.774 7.053-2.411 10.823l9.226 25.508c1.044 2.886 3.317 5.159 6.203 6.203l25.508 9.226c3.77 1.364 7.988.424 10.823-2.411l20.468-20.468c1.711-1.709 2.767-3.964 2.986-6.371z" fill="#dfdde2"/><path d="m252.07 258.3-103.767 103.767c-1.705 1.705-3.958 2.759-6.366 2.987l-13.145 1.188c-4.971.455-8.908 4.392-9.353 9.363l-1.199 13.135c-.217 2.408-1.271 4.671-2.987 6.376l-9.353 9.363c-1.716 1.705-3.968 2.759-6.376 2.976l-13.145 1.199c-4.971.455-8.898 4.392-9.353 9.353l-1.199 13.145c-.217 2.408-1.271 4.661-2.987 6.376l-20.462 20.462c-2.832 2.842-7.058 3.782-10.82 2.418l-25.66-9.28c-1.405-.537-2.666-1.364-3.7-2.408l11.419-11.357c2.997-2.966 7.43-3.948 11.399-2.511l.579.207c3.979 1.436 8.422.444 11.42-2.542l4.682-4.681c1.798-1.809 2.914-4.185 3.142-6.728l2.067-22.694c.475-5.25 4.63-9.404 9.869-9.88l24.183-2.191c1.591-.145 3.069-.847 4.196-1.964 1.126-1.126 1.819-2.615 1.964-4.196l2.201-24.182c.475-5.24 4.63-9.394 9.869-9.869l22.705-2.067c2.542-.227 4.919-1.343 6.717-3.152l74.935-74.924c1.033-1.033.775-2.77-.517-3.462l-7.72-4.154c-1.126-.61-2.046-1.54-2.656-2.666l-16.339-30.342 16.411-16.411z" fill="#c6c1c8"/></g><g><path d="m442.209 349.656h-43.619c-4.281 0-7.751-3.47-7.751-7.751s3.47-7.751 7.751-7.751h43.619c4.281 0 7.751 3.47 7.751 7.751s-3.47 7.751-7.751 7.751z" fill="#e28086"/></g><g><path d="m149.515 319.257c-1.983 0-3.967-.757-5.481-2.27-3.027-3.027-3.027-7.934 0-10.961l75.623-75.623c3.028-3.027 7.934-3.027 10.962 0 3.027 3.027 3.027 7.934 0 10.961l-75.623 75.623c-1.514 1.513-3.498 2.27-5.481 2.27z" fill="#818181"/></g><path d="m325.363 289.877 81.657-81.657c3.227-3.227 3.955-8.189 1.792-12.207l-50.331-93.472-93.472-50.331c-4.018-2.164-8.98-1.435-12.207 1.792l-81.657 81.657c-3.227 3.227-3.955 8.189-1.792 12.207l48.861 90.742c.959 1.781 2.419 3.241 4.2 4.2l90.742 48.861c4.018 2.163 8.98 1.435 12.207-1.792zm.732-124.106c-8.517 8.517-22.326 8.517-30.844 0-8.517-8.517-8.517-22.326 0-30.844 8.517-8.517 22.326-8.517 30.844 0 8.517 8.517 8.517 22.326 0 30.844z" fill="#818181"/><path d="m392.401 165.537c-4.951 7.132-10.601 13.926-16.957 20.282-46.307 46.307-115.784 55.305-171.108 27.015l13.878 25.774c.959 1.781 2.419 3.241 4.2 4.2l90.742 48.861c4.018 2.164 8.98 1.435 12.207-1.792l81.657-81.657c3.227-3.227 3.955-8.189 1.792-12.207z" fill="#595959"/><g><path d="m289.083 229.04c-1.983 0-3.967-.757-5.481-2.27l-49.35-49.35c-3.027-3.027-3.027-7.934 0-10.961 3.028-3.027 7.934-3.027 10.962 0l49.35 49.35c3.027 3.027 3.027 7.934 0 10.961-1.514 1.513-3.498 2.27-5.481 2.27z" fill="#e28086"/></g><path d="m389.095 87.745c3.589-3.286 8.205-4.458 12.728-3.333 6.46 1.607 10.826 7.661 10.826 14.318v64.214c0 .306.307.517.592.408l3.673-1.732c1.765-.866 5.466-.883 7.208.112l3.436 1.621c.286.109.592-.102.592-.408v-64.83c0-11.896-6.764-22.263-17.651-27.056-10.89-4.792-23.101-2.778-31.874 5.256l-57.766 52.902c-3.157 2.891-3.372 7.794-.481 10.951s7.794 3.372 10.951.481z" fill="#c6c1c8"/></g></svg>