<?xml version="1.0" encoding="iso-8859-1"?>
<!-- Generator: Adobe Illustrator 19.0.0, SVG Export Plug-In . SVG Version: 6.00 Build 0)  -->
<svg version="1.1" id="Capa_1" xmlns="http://www.w3.org/2000/svg" xmlns:xlink="http://www.w3.org/1999/xlink" x="0px" y="0px"
	 viewBox="0 0 512 512" style="enable-background:new 0 0 512 512;" xml:space="preserve">
<path style="fill:#FFEEE6;" d="M473.5,96l7.5-4.2V65.7L415.3,0h-26.1L385,7.5C376.901,21.299,361.901,30,346,30
	s-30.901-8.701-39-22.5L302.8,0h-93.6L205,7.5C196.901,21.299,181.901,30,166,30s-30.901-8.701-39-22.5L122.8,0H96.7L31,65.7v26.1
	l7.5,4.2c13.801,8.099,22.5,23.099,22.5,39c0,15.899-8.699,30.899-22.5,39l-7.2,4.2l-0.3,8.399
	c-2.999,119.7,59.399,233.901,162.599,294.5l52.2,30.901h20.402l52.2-30.901C421.601,420.5,484,306.299,481,186.599l-0.3-8.399
	l-7.2-4.2c-13.801-8.101-22.5-23.101-22.5-39C451,119.099,459.699,104.099,473.5,96z"/>
<path style="fill:#E1D3CE;" d="M451,135c0,15.899,8.699,30.899,22.5,39l7.2,4.2l0.3,8.399c2.999,119.7-59.399,233.901-162.599,294.5
	L266.201,512H256V0h46.8l4.2,7.5c8.099,13.799,23.099,22.5,39,22.5s30.901-8.701,39-22.5l4.2-7.5h26.1L481,65.7v26.1l-7.5,4.2
	C459.699,104.099,451,119.099,451,135z"/>
<path style="fill:#17ACE8;" d="M416.8,203.699C400,184.499,391,160.199,391,135c0-10.501,1.5-21,4.799-30.901L404.2,76.8
	l-27.299,8.399C342.4,96,303.701,87.599,276.7,63.6l-4.501-3.6H239.8l-4.501,3.6c-27.001,24-65.7,32.401-100.201,21.599L107.8,76.8
	l8.401,27.299C119.5,114,121,124.499,121,135c0,25.199-9,49.499-25.8,68.699l-3.9,4.801l0.3,5.999
	c6.6,88.5,56.1,169.001,132.3,214.001l32.1,18.9l32.1-18.9c76.199-45,125.7-125.501,132.299-214.001l0.3-5.999L416.8,203.699z"/>
<path style="fill:#1689FC;" d="M420.7,208.5l-0.3,5.999c-6.6,88.5-56.1,169.001-132.3,214.001L256,447.4V60h16.199l4.501,3.6
	c27.001,24,65.7,32.401,100.201,21.599L404.2,76.8l-8.401,27.299C392.5,114,391,124.499,391,135c0,25.199,9,49.499,25.8,68.699
	L420.7,208.5z"/>
<path style="fill:#FEDB41;" d="M363.1,208.799l-74.101-10.8L256,131.1l-32.999,66.899l-74.101,10.8L202.599,261L190,334.499
	l66-34.799l66,34.799L309.401,261L363.1,208.799z"/>
<polygon style="fill:#FCBF29;" points="309.401,261 322,334.499 256,299.7 256,131.1 288.999,197.999 363.1,208.799 "/>
<g>
</g>
<g>
</g>
<g>
</g>
<g>
</g>
<g>
</g>
<g>
</g>
<g>
</g>
<g>
</g>
<g>
</g>
<g>
</g>
<g>
</g>
<g>
</g>
<g>
</g>
<g>
</g>
<g>
</g>
</svg>
